<?xml version="1.0" standalone="no"?>
<!DOCTYPE svg PUBLIC "-//W3C//DTD SVG 20010904//EN"
 "http://www.w3.org/TR/2001/REC-SVG-20010904/DTD/svg10.dtd">
<svg version="1.0" xmlns="http://www.w3.org/2000/svg"
 width="140.000000pt" height="140.000000pt" viewBox="0 0 140.000000 140.000000"
 preserveAspectRatio="xMidYMid meet">

<g transform="translate(0.000000,140.000000) scale(0.100000,-0.100000)"
fill="#000000" stroke="none">
<path d="M683 1203 c-20 -7 -15 -40 6 -46 13 -3 21 1 24 14 6 21 -12 39 -30
32z"/>
<path d="M595 1169 c-10 -15 1 -23 20 -15 9 3 13 10 10 16 -8 13 -22 13 -30
-1z"/>
<path d="M517 1146 c-23 -34 -21 -52 5 -70 31 -22 50 -19 71 9 17 24 17 25 0
31 -10 4 -27 17 -39 31 l-21 24 -16 -25z m39 -64 c-10 -9 -36 14 -36 32 0 20
1 20 20 -4 10 -14 17 -26 16 -28z"/>
<path d="M823 1138 c-13 -14 -14 -21 -5 -30 7 -7 12 -21 12 -33 0 -24 78 -105
102 -105 17 0 41 23 33 33 -3 4 -2 5 2 2 3 -3 7 -16 8 -30 1 -27 -9 -29 -96
-25 -20 1 -41 -5 -47 -12 -6 -8 -13 -60 -15 -119 -2 -71 -3 -49 -5 72 -2 197
-5 204 -67 197 -24 -3 -35 0 -35 9 0 9 -15 13 -45 13 l-45 0 0 -42 0 -43 -137
0 c-131 0 -138 -1 -138 -20 0 -11 -6 -24 -13 -28 -6 -4 -12 -19 -12 -32 0 -22
-5 -25 -35 -25 l-35 0 0 -109 0 -109 -30 -11 -30 -10 0 -125 0 -126 53 -30
c77 -46 282 -143 365 -175 47 -17 84 -25 105 -22 67 10 266 98 425 187 l72 41
0 120 0 120 -30 17 c-30 17 -30 17 -30 110 0 50 -4 92 -9 92 -5 0 -11 12 -13
28 -3 26 -5 27 -71 30 l-68 3 25 20 c29 23 34 49 11 49 -18 0 -20 21 -3 38 9
9 3 22 -31 56 -41 42 -46 44 -98 43 -38 -1 -58 -6 -70 -19z m34 -15 c-9 -9
-19 -14 -23 -11 -10 10 6 28 24 28 15 0 15 -1 -1 -17z m88 -23 c21 -22 37 -40
34 -40 -3 0 -23 18 -44 40 -21 22 -37 40 -34 40 3 0 23 -18 44 -40z m5 -64 c0
-5 -8 -18 -17 -28 -16 -18 -18 -17 -50 14 -37 36 -41 53 -16 80 17 19 18 18
50 -19 18 -21 32 -42 33 -47z m-296 49 c-4 -8 -8 -15 -10 -15 -2 0 -4 7 -4 15
0 8 4 15 10 15 5 0 7 -7 4 -15z m79 -47 c-9 -15 -23 -8 -23 12 0 17 2 19 14 8
8 -7 12 -16 9 -20z m-79 -3 c-4 -8 -1 -15 5 -15 6 0 11 7 11 15 0 8 5 15 10
15 6 0 10 -9 10 -20 0 -15 -7 -20 -25 -20 -18 0 -25 5 -25 20 0 11 4 20 10 20
5 0 7 -7 4 -15z m129 -16 c7 0 3 -4 -7 -8 -11 -4 -31 -5 -45 -3 -23 5 -24 6
-6 13 11 4 26 6 33 3 8 -2 19 -4 25 -5z m217 1 c0 -5 -2 -10 -4 -10 -3 0 -8 5
-11 10 -3 6 -1 10 4 10 6 0 11 -4 11 -10z m-405 -10 c4 -6 -37 -10 -114 -10
-74 0 -121 4 -121 10 0 6 45 10 114 10 66 0 117 -4 121 -10z m58 -30 c-3 -11
-7 -20 -9 -20 -2 0 -4 9 -4 20 0 11 4 20 9 20 5 0 7 -9 4 -20z m89 3 c-12 -2
-20 -9 -17 -14 4 -5 1 -9 -4 -9 -6 0 -11 7 -11 15 0 10 9 15 28 14 23 -2 24
-2 4 -6z m-375 -29 c-3 -3 -12 -4 -19 -1 -8 3 -5 6 6 6 11 1 17 -2 13 -5z
m362 -30 c-10 -12 -10 -20 -1 -35 10 -16 9 -19 -3 -19 -10 0 -15 10 -15 35 0
26 4 35 16 35 14 0 14 -3 3 -16z m-377 -24 c-2 -16 -6 -30 -8 -30 -2 0 -4 14
-4 30 0 17 4 30 8 30 5 0 7 -13 4 -30z m548 20 c0 -5 -12 -11 -27 -11 l-28 -2
28 -4 c36 -6 35 -18 -3 -19 -25 -1 -30 3 -30 22 0 20 5 24 30 24 17 0 30 -4
30 -10z m200 -4 c0 -13 -20 -26 -41 -26 -5 0 -9 9 -9 20 0 15 7 20 25 20 15 0
25 -6 25 -14z m-620 -3 c-8 -3 -18 -11 -22 -17 -5 -7 -8 -4 -8 7 0 11 7 17 23
16 15 0 17 -2 7 -6z m68 -47 c-4 -52 -31 -58 -36 -8 -4 45 3 63 23 56 12 -5
15 -17 13 -48z m34 17 c-5 -59 -10 -63 -11 -10 -1 26 3 47 7 47 4 0 6 -17 4
-37z m85 31 c-3 -3 -12 -4 -19 -1 -8 3 -5 6 6 6 11 1 17 -2 13 -5z m-347 -18
c0 -2 -13 -6 -30 -8 -16 -3 -30 -1 -30 4 0 4 14 8 30 8 17 0 30 -2 30 -4z
m357 -31 c0 -6 -6 -12 -14 -12 -7 0 -13 6 -13 12 0 6 6 12 13 12 8 0 14 -6 14
-12z m283 11 c0 -2 -7 -6 -15 -10 -8 -3 -15 -1 -15 4 0 6 7 10 15 10 8 0 15
-2 15 -4z m87 -18 c-3 -8 -6 -5 -6 6 -1 11 2 17 5 13 3 -3 4 -12 1 -19z m83
12 c0 -5 -11 -10 -25 -10 -14 0 -25 5 -25 10 0 6 11 10 25 10 14 0 25 -4 25
-10z m-810 -15 c0 -9 -6 -15 -12 -14 -28 3 -38 -2 -38 -21 0 -11 3 -20 8 -20
4 0 7 -11 7 -25 0 -14 -5 -25 -11 -25 -8 0 -12 22 -13 60 l-1 60 30 0 c20 0
30 -5 30 -15z m534 -57 c-8 -97 -14 -99 -14 -5 0 43 4 77 10 77 6 0 7 -28 4
-72z m-85 58 c-12 -10 -59 -15 -59 -6 0 5 14 10 32 10 17 0 29 -2 27 -4z m228
-103 c-2 -21 -4 -6 -4 32 0 39 2 55 4 38 2 -18 2 -50 0 -70z m-39 22 c2 -43
-1 -56 -8 -45 -6 10 -10 11 -10 3 0 -7 -4 -13 -10 -13 -6 0 -10 27 -10 61 0
52 2 60 18 57 13 -3 18 -15 20 -63z m89 -32 c-2 -21 -4 -6 -4 32 0 39 2 55 4
38 2 -18 2 -50 0 -70z m68 88 l-20 -8 20 -5 c17 -5 16 -6 -5 -8 -22 -1 -23 -2
-6 -9 19 -7 19 -8 0 -13 -14 -4 -21 0 -21 11 -2 30 6 41 29 40 22 0 22 -1 3
-8z m-811 -13 c-3 -4 -9 -8 -15 -8 -5 0 -9 4 -9 8 0 5 7 9 15 9 8 0 12 -4 9
-9z m43 -50 c-2 -13 -4 -3 -4 22 0 25 2 35 4 23 2 -13 2 -33 0 -45z m417 54
c2 -4 -4 -9 -15 -9 -11 -1 -17 2 -14 8 7 11 22 12 29 1z m-444 -47 c0 -14 -3
-25 -7 -25 -5 0 -8 11 -8 25 0 14 3 25 8 25 4 0 7 -11 7 -25z m415 8 l-20 -16
20 8 c49 18 55 18 55 -4 0 -18 -6 -21 -40 -21 -36 0 -40 3 -40 25 0 19 5 25
23 25 22 -1 22 -1 2 -17z m-201 1 c10 -4 16 -18 16 -35 0 -22 -5 -29 -20 -29
-16 0 -20 7 -20 35 0 38 0 38 24 29z m60 0 c10 -4 16 -18 16 -35 0 -22 -5 -29
-20 -29 -16 0 -20 7 -20 35 0 38 0 38 24 29z m53 -46 c-2 -13 -4 -5 -4 17 -1
22 1 32 4 23 2 -10 2 -28 0 -40z m-190 -5 c-3 -10 -5 -2 -5 17 0 19 2 27 5 18
2 -10 2 -26 0 -35z m-30 31 c-3 -3 -12 -4 -19 -1 -8 3 -5 6 6 6 11 1 17 -2 13
-5z m673 -14 c0 -11 5 -20 10 -20 6 0 10 9 10 21 0 11 5 17 10 14 6 -3 10 -19
10 -36 0 -29 -20 -39 -45 -21 -14 9 -18 62 -5 62 6 0 10 -9 10 -20z m-813 -46
c-3 -3 -12 -4 -19 -1 -8 3 -5 6 6 6 11 1 17 -2 13 -5z m251 -30 c16 -5 22 -14
22 -36 0 -30 -19 -36 -28 -8 -3 9 0 10 9 4 12 -7 12 -5 0 9 -7 9 -21 17 -30
16 -12 0 -12 -2 3 -8 18 -7 18 -8 3 -14 -25 -9 -22 -63 4 -77 19 -11 20 -10 9
10 -13 25 -8 35 15 27 31 -12 9 -97 -25 -97 -14 0 -22 20 -8 20 7 0 4 6 -7 12
-11 6 -25 19 -32 27 -11 14 -12 14 -13 -2 0 -9 -11 -23 -25 -29 -21 -9 -28 -8
-45 7 -23 21 -28 93 -8 113 18 18 56 14 70 -7 11 -19 13 -18 30 10 19 31 21
32 56 23z m102 -19 c16 -19 3 -40 -16 -24 -11 9 -14 8 -14 -5 0 -9 4 -16 10
-16 5 0 14 -9 20 -19 22 -43 -23 -77 -52 -41 -10 12 -15 27 -11 33 4 6 11 3
20 -8 9 -13 16 -16 23 -9 7 7 2 18 -15 34 -28 26 -31 40 -13 58 16 16 33 15
48 -3z m40 -15 c0 -13 7 -20 20 -20 13 0 20 7 20 20 0 11 5 20 10 20 6 0 10
-27 10 -60 0 -33 -4 -60 -10 -60 -5 0 -10 11 -10 25 0 18 -5 25 -20 25 -15 0
-20 -7 -20 -25 0 -14 -4 -25 -10 -25 -6 0 -10 27 -10 60 0 33 4 60 10 60 6 0
10 -9 10 -20z m100 -30 c0 -44 3 -50 21 -50 30 0 18 -24 -14 -28 -27 -3 -27
-3 -27 62 0 37 4 66 10 66 6 0 10 -22 10 -50z m104 44 c25 -9 19 -24 -9 -24
-14 0 -25 -4 -25 -10 0 -5 11 -10 25 -10 14 0 25 -4 25 -10 0 -5 -11 -10 -25
-10 -15 0 -25 -6 -25 -14 0 -8 11 -17 25 -20 36 -9 31 -26 -9 -26 -32 0 -34 2
-37 38 -8 84 5 105 55 86z m57 -48 c0 -16 4 -13 12 11 14 38 27 52 27 30 0
-36 -24 -117 -35 -117 -10 0 -36 91 -35 124 1 19 30 -27 31 -48z m-644 -23 c2
-54 -1 -64 -18 -74 -39 -20 -49 -5 -49 71 l0 71 33 -3 32 -3 2 -62z m43 6 c0
-31 4 -48 11 -46 6 1 14 -4 16 -10 3 -8 -5 -13 -21 -13 -25 0 -26 2 -26 66 0
41 4 63 10 59 6 -3 10 -28 10 -56z m738 44 c2 -9 -7 -13 -27 -13 -17 0 -31 -4
-31 -10 0 -5 11 -10 25 -10 14 0 25 -4 25 -10 0 -5 -12 -10 -26 -10 -19 0 -25
-5 -22 -17 2 -10 12 -19 23 -21 40 -8 39 -22 -2 -22 -40 0 -41 1 -44 38 -2 20
-3 50 -1 65 3 26 7 28 39 25 20 -2 38 -9 41 -15z m71 3 c7 -8 11 -37 9 -68 -3
-52 -4 -53 -35 -56 l-33 -3 0 70 c0 68 1 71 24 71 13 0 29 -6 35 -14z m-527
-171 c38 -26 65 -62 54 -73 -3 -3 -6 0 -6 6 0 19 -87 72 -117 72 -26 0 -25 -2
17 -26 51 -29 96 -69 112 -99 6 -11 -11 1 -38 26 -58 54 -202 127 -180 91 2
-4 -12 -6 -32 -5 -33 3 -30 0 36 -31 73 -35 196 -116 188 -123 -2 -3 -26 11
-53 30 -26 19 -90 56 -141 81 -93 47 -94 47 -160 39 l-67 -9 110 -56 c61 -30
144 -70 185 -88 41 -18 94 -41 117 -51 23 -11 46 -19 50 -19 15 0 275 116 373
166 l95 48 -67 9 -66 8 -114 -57 c-62 -31 -130 -70 -150 -86 -21 -16 -38 -26
-38 -21 0 17 87 73 182 118 53 26 83 45 71 45 -30 0 -120 -41 -180 -81 -28
-18 -40 -23 -28 -11 11 11 54 39 95 61 41 22 69 41 61 41 -31 0 -160 -72 -190
-105 -17 -20 -31 -32 -31 -27 0 19 59 74 110 102 43 23 50 30 31 30 -27 0
-116 -53 -131 -79 -7 -12 -9 -13 -10 -2 0 8 21 34 46 58 l46 44 81 -6 c157
-12 282 -27 296 -34 10 -6 -11 -22 -71 -55 -105 -57 -260 -129 -313 -146 -22
-7 -44 -16 -49 -21 -13 -11 -79 -12 -92 -1 -5 5 -38 19 -74 32 -65 23 -246
110 -329 158 -63 37 -66 36 239 65 82 8 96 6 132 -18z m-77 -45 c29 -17 59
-37 66 -46 8 -9 -11 -1 -41 18 -30 19 -64 40 -75 46 -11 6 -16 12 -11 12 5 0
32 -14 61 -30z"/>
<path d="M867 1083 c-7 -6 44 -73 56 -73 4 0 7 8 7 18 0 19 -53 65 -63 55z"/>
<path d="M942 800 c0 -14 2 -19 5 -12 2 6 2 18 0 25 -3 6 -5 1 -5 -13z"/>
<path d="M760 770 c0 -5 5 -10 10 -10 6 0 10 5 10 10 0 6 -4 10 -10 10 -5 0
-10 -4 -10 -10z"/>
<path d="M400 591 c0 -35 13 -47 30 -26 16 19 9 49 -13 53 -13 3 -17 -3 -17
-27z"/>
<path d="M263 623 c-16 -6 -17 -36 -1 -31 6 2 12 12 14 21 1 9 2 17 1 16 -1 0
-8 -3 -14 -6z"/>
<path d="M250 550 c0 -5 7 -10 15 -10 8 0 15 5 15 10 0 6 -7 10 -15 10 -8 0
-15 -4 -15 -10z"/>
<path d="M1112 579 c2 -24 8 -43 13 -41 15 3 12 75 -3 80 -10 3 -12 -7 -10
-39z"/>
<path d="M272 1012 c-15 -10 -5 -42 13 -42 15 0 28 27 19 41 -6 11 -15 11 -32
1z"/>
<path d="M204 846 c-8 -22 3 -33 18 -18 9 9 9 15 0 24 -9 9 -13 7 -18 -6z"/>
<path d="M206 762 c-3 -6 -1 -14 5 -17 15 -10 25 3 12 16 -7 7 -13 7 -17 1z"/>
<path d="M120 423 c0 -4 12 -17 27 -29 27 -22 28 -22 9 -43 -24 -27 -9 -33 65
-29 74 4 72 26 -5 73 -54 32 -96 45 -96 28z"/>
<path d="M1194 402 c-23 -15 -50 -32 -60 -38 -11 -6 -15 -16 -11 -27 5 -13 19
-17 67 -17 33 0 60 2 60 5 0 3 -6 14 -12 26 -11 18 -10 23 15 44 15 13 27 27
27 30 0 14 -50 2 -86 -23z"/>
</g>
</svg>
