<?xml version="1.0" standalone="no"?>
<!DOCTYPE svg PUBLIC "-//W3C//DTD SVG 20010904//EN"
 "http://www.w3.org/TR/2001/REC-SVG-20010904/DTD/svg10.dtd">
<svg version="1.0" xmlns="http://www.w3.org/2000/svg"
 width="162.000000pt" height="162.000000pt" viewBox="0 0 162.000000 162.000000"
 preserveAspectRatio="xMidYMid meet">

<g transform="translate(0.000000,162.000000) scale(0.100000,-0.100000)"
fill="#000000" stroke="none">
<path d="M0 810 l0 -810 810 0 810 0 0 810 0 810 -810 0 -810 0 0 -810z m736
553 c-10 -10 -19 5 -10 18 6 11 8 11 12 0 2 -7 1 -15 -2 -18z m34 6 c0 -5 -4
-9 -10 -9 -5 0 -10 7 -10 16 0 8 5 12 10 9 6 -3 10 -10 10 -16z m-150 -19 c0
-5 -2 -10 -4 -10 -3 0 -8 5 -11 10 -3 6 -1 10 4 10 6 0 11 -4 11 -10z m244
-47 c-22 -22 -48 1 -31 27 10 18 13 18 29 3 15 -13 15 -17 2 -30z m163 25 c2
-17 0 -19 -7 -8 -5 8 -6 18 -4 22 8 12 10 10 11 -14z m25 -20 c-8 -8 -9 -4 -5
13 4 13 8 18 11 10 2 -7 -1 -18 -6 -23z m-360 -2 c28 -38 27 -70 -2 -86 -16
-8 -22 -6 -34 13 -12 18 -13 31 -5 60 12 43 18 45 41 13z m-167 -6 c3 -5 -1
-10 -10 -10 -9 0 -13 5 -10 10 3 6 8 10 10 10 2 0 7 -4 10 -10z m585 -4 c0 -2
-7 -7 -16 -10 -8 -3 -12 -2 -9 4 6 10 25 14 25 6z m30 -26 c0 -5 -4 -10 -10
-10 -5 0 -10 5 -10 10 0 6 5 10 10 10 6 0 10 -4 10 -10z m-351 -26 c-8 -10
-14 -11 -24 -1 -15 14 0 28 22 20 10 -4 11 -9 2 -19z m271 -69 c-21 -22 -25
-23 -40 -10 -21 19 -22 45 -2 68 15 17 17 17 41 -7 l25 -25 -24 -26z m126 29
c-12 -11 -16 -36 -16 -97 0 -71 -3 -84 -20 -95 -19 -12 -20 -10 -20 48 0 33
-3 60 -7 60 -5 0 -28 -20 -53 -45 -25 -24 -50 -44 -57 -45 -7 0 -22 -13 -34
-30 -12 -16 -25 -28 -28 -26 -3 2 -5 -45 -3 -105 3 -93 1 -109 -12 -109 -14 0
-16 16 -16 102 0 98 -1 101 -16 79 -13 -17 -16 -43 -15 -101 2 -60 -1 -79 -13
-83 -11 -4 -15 5 -18 44 -1 28 1 57 5 65 17 30 -2 12 -23 -21 -13 -21 -26 -32
-33 -28 -7 4 -7 0 1 -9 16 -20 12 -70 -5 -76 -9 -2 -13 7 -13 27 0 34 -11 39
-30 16 -25 -30 -21 -7 6 38 24 39 30 43 39 30 13 -17 26 1 91 122 33 62 31 60
48 46 11 -10 18 -6 36 19 12 16 25 28 30 25 5 -3 17 6 26 20 9 14 22 25 29 25
14 0 42 29 47 49 4 19 82 92 86 80 2 -5 -4 -16 -12 -25z m-726 -24 c0 -5 -4
-10 -9 -10 -6 0 -13 5 -16 10 -3 6 1 10 9 10 9 0 16 -4 16 -10z m478 -2 c7 -7
12 -26 12 -43 0 -17 -5 -36 -12 -43 -17 -17 -64 -15 -82 4 -19 18 -21 65 -4
82 16 16 70 16 86 0z m-327 -37 c-12 -12 -21 -28 -21 -36 0 -9 -9 -15 -21 -15
-34 0 -20 42 20 62 42 21 50 17 22 -11z m629 -1 c0 -5 -2 -10 -4 -10 -3 0 -8
5 -11 10 -3 6 -1 10 4 10 6 0 11 -4 11 -10z m40 -45 c0 -8 -7 -15 -15 -15 -8
0 -15 7 -15 15 0 8 7 15 15 15 8 0 15 -7 15 -15z m-750 -71 c25 -7 25 -7 6 15
l-19 21 55 0 c30 0 76 -7 102 -16 39 -13 55 -14 84 -6 28 9 38 9 44 -1 16 -25
8 -48 -22 -58 -36 -13 -40 -32 -5 -23 37 9 31 0 -27 -41 -107 -78 -160 -81
-205 -14 -18 27 -24 48 -21 69 5 31 5 31 -34 25 -33 -6 -41 -3 -68 23 -16 17
-30 39 -30 51 0 19 3 18 58 -9 31 -16 68 -32 82 -36z m540 -91 l-20 -26 0 64
c0 45 5 72 18 89 l17 25 3 -63 c2 -51 -1 -67 -18 -89z m160 99 c0 -4 -10 -13
-22 -21 -23 -14 -23 -14 -4 8 20 22 26 25 26 13z m-884 -21 c-18 -7 -18 -8 -3
-14 25 -9 21 -27 -5 -26 -21 0 -21 1 -4 8 18 7 18 8 3 14 -25 9 -21 27 6 26
20 0 20 -1 3 -8z m674 -74 c0 -54 -5 -90 -13 -102 -12 -16 -15 -7 -21 69 -5
62 -4 92 5 102 23 28 29 13 29 -69z m297 53 c4 -13 3 -13 -6 0 -10 13 -12 13
-21 0 -8 -13 -10 -12 -10 3 0 22 31 19 37 -3z m-92 -158 c-6 -32 -8 -34 -40
-28 -18 4 -51 2 -74 -3 l-41 -9 37 47 c20 25 42 51 49 56 6 6 15 21 19 35 4
14 17 36 29 48 l21 24 3 -69 c2 -37 0 -83 -3 -101z m-772 55 c19 -47 231 -292
285 -330 31 -22 36 -37 14 -45 -10 -3 -240 210 -242 226 -1 4 -13 22 -26 40
-26 34 -47 78 -58 125 -10 42 7 32 27 -16z m82 -35 c15 -12 38 -22 51 -22 27
0 27 -2 10 -49 l-12 -34 -41 49 c-42 52 -73 104 -73 126 0 7 9 -1 19 -18 10
-17 31 -40 46 -52z m738 -27 c-3 -9 -8 -14 -10 -11 -3 3 -2 9 2 15 9 16 15 13
8 -4z m35 -16 c-3 -8 -7 -3 -11 10 -4 17 -3 21 5 13 5 -5 8 -16 6 -23z m-579
-30 c-6 -3 -4 -11 6 -19 19 -16 20 -50 0 -50 -8 0 -15 8 -15 18 0 27 -11 34
-25 15 -11 -15 -13 -15 -24 6 -12 22 -13 22 -27 4 -14 -17 -14 -16 -4 5 11 22
13 23 30 7 18 -16 19 -15 35 16 13 24 19 29 25 18 5 -8 5 -16 -1 -20z m-356
14 c-7 -2 -19 -2 -25 0 -7 3 -2 5 12 5 14 0 19 -2 13 -5z m107 -70 c38 -25 98
-81 170 -159 l64 -69 -60 58 c-57 55 -84 69 -84 46 0 -6 9 -24 21 -40 30 -43
6 -35 -26 9 -16 20 -44 55 -64 76 -31 35 -33 38 -9 23 42 -26 43 -2 1 29 -53
39 -59 44 -47 44 5 0 21 -8 34 -17z m380 -18 c-80 -33 -156 -47 -134 -26 15
15 156 60 189 61 23 0 9 -9 -55 -35z m187 3 l28 -11 -40 -8 c-45 -8 -130 0
-118 11 21 20 91 24 130 8z m133 2 c0 -5 -7 -7 -15 -4 -8 4 -15 8 -15 10 0 2
7 4 15 4 8 0 15 -4 15 -10z m75 0 c3 -5 1 -10 -4 -10 -6 0 -11 5 -11 10 0 6 2
10 4 10 3 0 8 -4 11 -10z m-95 -40 c0 -5 -9 -10 -21 -10 -11 0 -17 5 -14 10 3
6 13 10 21 10 8 0 14 -4 14 -10z m-247 -26 c-35 -17 -66 -24 -90 -22 l-38 3
55 22 c30 12 71 22 90 22 l35 -1 -52 -24z m217 -19 c-14 -16 -50 -21 -50 -6 0
11 18 19 44 20 15 1 16 -2 6 -14z m-35 -45 c-3 -5 -21 -10 -38 -10 -24 0 -28
3 -17 10 20 13 63 13 55 0z m-236 -66 c9 -8 -45 -2 -64 6 -14 7 -8 8 20 3 22
-3 42 -7 44 -9z m111 6 c-8 -5 -26 -9 -40 -9 -23 1 -23 2 5 9 43 11 52 11 35
0z m-679 -103 c-1 -12 -15 -9 -19 4 -3 6 1 10 8 8 6 -3 11 -8 11 -12z m407
-24 c12 -12 13 -18 4 -21 -14 -4 -16 -42 -2 -42 6 0 10 -4 10 -10 0 -5 -9 -10
-20 -10 -15 0 -20 7 -20 29 0 16 -5 31 -12 33 -9 3 -8 9 2 21 19 20 18 20 38
0z m-400 -46 c2 -28 -1 -37 -12 -37 -12 0 -16 11 -16 41 0 52 24 48 28 -4z
m62 21 l20 -22 0 22 c0 12 5 22 10 22 6 0 10 -18 10 -40 0 -46 -18 -53 -43
-17 l-16 22 0 -22 c-1 -39 -31 -28 -31 10 0 52 16 61 50 25z m80 0 l9 -23 7
23 c3 12 12 22 20 22 18 0 -7 -74 -27 -78 -13 -2 -39 46 -39 71 0 16 21 5 30
-15z m118 10 c20 -20 13 -38 -15 -39 -24 -2 -25 -2 -5 -6 32 -6 27 -23 -8 -23
-23 0 -31 5 -36 25 -11 43 34 73 64 43z m82 -3 c0 -9 -6 -12 -17 -9 -12 4 -10
0 6 -14 13 -11 21 -24 17 -31 -9 -14 -66 -15 -66 -1 0 6 8 10 17 10 15 0 15 1
-2 14 -11 8 -16 19 -12 30 8 20 57 22 57 1z m150 -5 c11 -21 9 -24 -35 -33
-15 -3 -13 -5 8 -6 15 0 27 -6 27 -12 0 -6 -14 -9 -32 -7 -28 3 -34 7 -36 32
-5 45 47 65 68 26z m80 5 c15 -18 5 -35 -21 -35 -10 0 -19 -7 -19 -15 0 -8 -4
-15 -10 -15 -5 0 -10 18 -10 40 0 35 3 40 24 40 13 0 29 -7 36 -15z m70 0 c0
-7 -7 -15 -15 -19 -8 -3 -15 -15 -15 -26 0 -11 -4 -20 -10 -20 -5 0 -10 17
-10 39 0 34 3 39 25 39 14 0 25 -6 25 -13z m94 -7 c48 -31 43 -52 -12 -56 -62
-5 -94 32 -60 66 17 17 32 15 72 -10z m116 7 c21 -25 8 -60 -22 -63 -16 -2
-28 -9 -28 -18 0 -8 -4 -14 -10 -14 -5 0 -10 24 -10 53 0 53 1 54 29 55 16 0
35 -6 41 -13z m90 -4 c15 -29 13 -31 -22 -32 -31 -2 -31 -2 -5 -6 38 -6 34
-25 -5 -21 -26 2 -34 8 -36 26 -7 46 47 72 68 33z m70 4 c0 -7 -7 -15 -15 -19
-8 -3 -15 -15 -15 -26 0 -11 -4 -20 -10 -20 -5 0 -10 17 -10 39 0 34 3 39 25
39 14 0 25 -6 25 -13z m68 3 c7 -7 12 -25 12 -41 0 -27 -2 -28 -37 -25 -43 3
-54 31 -15 36 12 2 20 7 17 12 -3 5 -12 7 -20 3 -8 -3 -15 -1 -15 5 0 21 40
28 58 10z m-311 -4 c-3 -3 -12 -4 -19 -1 -8 3 -5 6 6 6 11 1 17 -2 13 -5z
m-492 -124 c-3 -5 -12 -10 -18 -10 -7 0 -6 4 3 10 19 12 23 12 15 0z m66 -13
c-10 -9 -11 -8 -5 6 3 10 9 15 12 12 3 -3 0 -11 -7 -18z m123 8 c3 -8 1 -15
-4 -15 -6 0 -10 7 -10 15 0 8 2 15 4 15 2 0 6 -7 10 -15z m196 -7 c0 -6 -6 -5
-15 2 -8 7 -15 14 -15 16 0 2 7 1 15 -2 8 -4 15 -11 15 -16z m55 12 c3 -5 1
-10 -4 -10 -6 0 -11 5 -11 10 0 6 2 10 4 10 3 0 8 -4 11 -10z"/>
<path d="M861 1134 c0 -11 3 -14 6 -6 3 7 2 16 -1 19 -3 4 -6 -2 -5 -13z"/>
<path d="M645 1020 c-4 -6 -3 -16 3 -22 6 -6 12 -6 17 2 4 6 3 16 -3 22 -6 6
-12 6 -17 -2z"/>
<path d="M1196 923 c-10 -37 -18 -98 -12 -92 12 11 35 109 26 109 -5 0 -11 -8
-14 -17z"/>
<path d="M1146 874 c-4 -9 -4 -19 -1 -22 2 -3 7 3 11 12 4 9 4 19 1 22 -2 3
-7 -3 -11 -12z"/>
<path d="M530 632 c0 -12 19 -26 26 -19 2 2 -2 10 -11 17 -9 8 -15 8 -15 2z"/>
<path d="M748 363 c7 -3 16 -2 19 1 4 3 -2 6 -13 5 -11 0 -14 -3 -6 -6z"/>
<path d="M830 360 c0 -5 5 -10 10 -10 6 0 10 5 10 10 0 6 -4 10 -10 10 -5 0
-10 -4 -10 -10z"/>
<path d="M980 351 c0 -12 6 -21 16 -21 9 0 14 7 12 17 -5 25 -28 28 -28 4z"/>
<path d="M1107 356 c-6 -15 1 -26 15 -26 4 0 8 9 8 20 0 23 -15 27 -23 6z"/>
</g>
</svg>
